<mxfile host="app.diagrams.net" modified="2023-11-08T22:00:55.052Z" agent="Mozilla/5.0 (Windows NT 10.0; Win64; x64) AppleWebKit/537.36 (KHTML, like Gecko) Chrome/119.0.0.0 Safari/537.36" etag="MQxV7eRwm6Em2M2xSf4Q" version="22.0.8" type="github">
  <diagram id="C5RBs43oDa-KdzZeNtuy" name="Page-1">
    <mxGraphModel dx="1728" dy="925" grid="1" gridSize="10" guides="1" tooltips="1" connect="1" arrows="1" fold="1" page="1" pageScale="1" pageWidth="1169" pageHeight="827" math="0" shadow="0">
      <root>
        <mxCell id="WIyWlLk6GJQsqaUBKTNV-0" />
        <mxCell id="WIyWlLk6GJQsqaUBKTNV-1" parent="WIyWlLk6GJQsqaUBKTNV-0" />
        <mxCell id="Lri-4pAWPh4FQ8ncXx80-12" value="Pizza" style="swimlane;fontStyle=1;childLayout=stackLayout;horizontal=1;startSize=26;fillColor=none;horizontalStack=0;resizeParent=1;resizeParentMax=0;resizeLast=0;collapsible=1;marginBottom=0;whiteSpace=wrap;html=1;fontSize=13;spacing=2;rounded=0;labelBackgroundColor=none;strokeColor=#E07A5F;fontColor=#393C56;" vertex="1" parent="WIyWlLk6GJQsqaUBKTNV-1">
          <mxGeometry x="480" y="75" width="200" height="138" as="geometry" />
        </mxCell>
        <mxCell id="Lri-4pAWPh4FQ8ncXx80-13" value="+Number: int" style="text;strokeColor=none;fillColor=none;align=left;verticalAlign=top;spacingLeft=4;spacingRight=4;overflow=hidden;rotatable=0;points=[[0,0.5],[1,0.5]];portConstraint=eastwest;whiteSpace=wrap;html=1;fontSize=13;spacing=2;rounded=0;labelBackgroundColor=none;fontColor=#393C56;fontStyle=1" vertex="1" parent="Lri-4pAWPh4FQ8ncXx80-12">
          <mxGeometry y="26" width="200" height="26" as="geometry" />
        </mxCell>
        <mxCell id="Lri-4pAWPh4FQ8ncXx80-14" value="+Name: String" style="text;strokeColor=none;fillColor=none;align=left;verticalAlign=top;spacingLeft=4;spacingRight=4;overflow=hidden;rotatable=0;points=[[0,0.5],[1,0.5]];portConstraint=eastwest;whiteSpace=wrap;html=1;fontSize=13;spacing=2;rounded=0;labelBackgroundColor=none;fontColor=#393C56;fontStyle=1" vertex="1" parent="Lri-4pAWPh4FQ8ncXx80-12">
          <mxGeometry y="52" width="200" height="26" as="geometry" />
        </mxCell>
        <mxCell id="Lri-4pAWPh4FQ8ncXx80-15" value="+Price: double" style="text;strokeColor=none;fillColor=none;align=left;verticalAlign=top;spacingLeft=4;spacingRight=4;overflow=hidden;rotatable=0;points=[[0,0.5],[1,0.5]];portConstraint=eastwest;whiteSpace=wrap;html=1;fontSize=13;spacing=2;rounded=0;labelBackgroundColor=none;fontColor=#393C56;fontStyle=1" vertex="1" parent="Lri-4pAWPh4FQ8ncXx80-12">
          <mxGeometry y="78" width="200" height="26" as="geometry" />
        </mxCell>
        <mxCell id="Lri-4pAWPh4FQ8ncXx80-107" value="" style="line;strokeWidth=1;fillColor=none;align=left;verticalAlign=middle;spacingTop=-1;spacingLeft=3;spacingRight=3;rotatable=0;labelPosition=right;points=[];portConstraint=eastwest;strokeColor=inherit;fontColor=#393C56;" vertex="1" parent="Lri-4pAWPh4FQ8ncXx80-12">
          <mxGeometry y="104" width="200" height="8" as="geometry" />
        </mxCell>
        <mxCell id="Lri-4pAWPh4FQ8ncXx80-108" value="+ToString();" style="text;strokeColor=none;fillColor=none;align=left;verticalAlign=top;spacingLeft=4;spacingRight=4;overflow=hidden;rotatable=0;points=[[0,0.5],[1,0.5]];portConstraint=eastwest;whiteSpace=wrap;html=1;fontSize=13;spacing=2;rounded=0;labelBackgroundColor=none;fontColor=#393C56;fontStyle=1" vertex="1" parent="Lri-4pAWPh4FQ8ncXx80-12">
          <mxGeometry y="112" width="200" height="26" as="geometry" />
        </mxCell>
        <mxCell id="Lri-4pAWPh4FQ8ncXx80-16" value="User (Console)" style="swimlane;fontStyle=1;childLayout=stackLayout;horizontal=1;startSize=26;fillColor=none;horizontalStack=0;resizeParent=1;resizeParentMax=0;resizeLast=0;collapsible=1;marginBottom=0;whiteSpace=wrap;html=1;fontSize=13;spacing=2;rounded=0;labelBackgroundColor=none;strokeColor=#E07A5F;fontColor=#393C56;" vertex="1" parent="WIyWlLk6GJQsqaUBKTNV-1">
          <mxGeometry x="902.8399999999999" y="539" width="199" height="156" as="geometry" />
        </mxCell>
        <mxCell id="Lri-4pAWPh4FQ8ncXx80-17" value="Run RunStore();" style="text;strokeColor=none;fillColor=none;align=left;verticalAlign=top;spacingLeft=4;spacingRight=4;overflow=hidden;rotatable=0;points=[[0,0.5],[1,0.5]];portConstraint=eastwest;whiteSpace=wrap;html=1;fontSize=13;spacing=2;rounded=0;labelBackgroundColor=none;fontColor=#393C56;fontStyle=1" vertex="1" parent="Lri-4pAWPh4FQ8ncXx80-16">
          <mxGeometry y="26" width="199" height="26" as="geometry" />
        </mxCell>
        <mxCell id="Lri-4pAWPh4FQ8ncXx80-18" value="CRUD - PizzaMenu" style="text;strokeColor=none;fillColor=none;align=left;verticalAlign=top;spacingLeft=4;spacingRight=4;overflow=hidden;rotatable=0;points=[[0,0.5],[1,0.5]];portConstraint=eastwest;whiteSpace=wrap;html=1;fontSize=13;spacing=2;rounded=0;labelBackgroundColor=none;fontColor=#393C56;fontStyle=1" vertex="1" parent="Lri-4pAWPh4FQ8ncXx80-16">
          <mxGeometry y="52" width="199" height="26" as="geometry" />
        </mxCell>
        <mxCell id="Lri-4pAWPh4FQ8ncXx80-110" value="CRUD - PizzaOrder" style="text;strokeColor=none;fillColor=none;align=left;verticalAlign=top;spacingLeft=4;spacingRight=4;overflow=hidden;rotatable=0;points=[[0,0.5],[1,0.5]];portConstraint=eastwest;whiteSpace=wrap;html=1;fontSize=13;spacing=2;rounded=0;labelBackgroundColor=none;fontColor=#393C56;fontStyle=1" vertex="1" parent="Lri-4pAWPh4FQ8ncXx80-16">
          <mxGeometry y="78" width="199" height="26" as="geometry" />
        </mxCell>
        <mxCell id="Lri-4pAWPh4FQ8ncXx80-19" value="CRUD - Customer File&amp;nbsp;" style="text;strokeColor=none;fillColor=none;align=left;verticalAlign=top;spacingLeft=4;spacingRight=4;overflow=hidden;rotatable=0;points=[[0,0.5],[1,0.5]];portConstraint=eastwest;whiteSpace=wrap;html=1;fontSize=13;spacing=2;rounded=0;labelBackgroundColor=none;fontColor=#393C56;fontStyle=1" vertex="1" parent="Lri-4pAWPh4FQ8ncXx80-16">
          <mxGeometry y="104" width="199" height="26" as="geometry" />
        </mxCell>
        <mxCell id="Lri-4pAWPh4FQ8ncXx80-20" value="Show Log" style="text;strokeColor=none;fillColor=none;align=left;verticalAlign=top;spacingLeft=4;spacingRight=4;overflow=hidden;rotatable=0;points=[[0,0.5],[1,0.5]];portConstraint=eastwest;whiteSpace=wrap;html=1;fontSize=13;spacing=2;rounded=0;labelBackgroundColor=none;fontColor=#393C56;fontStyle=1" vertex="1" parent="Lri-4pAWPh4FQ8ncXx80-16">
          <mxGeometry y="130" width="199" height="26" as="geometry" />
        </mxCell>
        <mxCell id="Lri-4pAWPh4FQ8ncXx80-30" value="PizzaOrder" style="swimlane;fontStyle=1;childLayout=stackLayout;horizontal=1;startSize=26;fillColor=none;horizontalStack=0;resizeParent=1;resizeParentMax=0;resizeLast=0;collapsible=1;marginBottom=0;whiteSpace=wrap;html=1;fontSize=13;spacing=2;rounded=0;labelBackgroundColor=none;strokeColor=#E07A5F;fontColor=#393C56;" vertex="1" parent="WIyWlLk6GJQsqaUBKTNV-1">
          <mxGeometry x="70" y="296" width="240" height="190" as="geometry" />
        </mxCell>
        <mxCell id="Lri-4pAWPh4FQ8ncXx80-32" value="-nextOrderId: int" style="text;strokeColor=none;fillColor=none;align=left;verticalAlign=top;spacingLeft=4;spacingRight=4;overflow=hidden;rotatable=0;points=[[0,0.5],[1,0.5]];portConstraint=eastwest;whiteSpace=wrap;html=1;fontSize=13;spacing=2;rounded=0;labelBackgroundColor=none;fontColor=#393C56;fontStyle=1" vertex="1" parent="Lri-4pAWPh4FQ8ncXx80-30">
          <mxGeometry y="26" width="240" height="26" as="geometry" />
        </mxCell>
        <mxCell id="Lri-4pAWPh4FQ8ncXx80-33" value="-orderName: String" style="text;strokeColor=none;fillColor=none;align=left;verticalAlign=top;spacingLeft=4;spacingRight=4;overflow=hidden;rotatable=0;points=[[0,0.5],[1,0.5]];portConstraint=eastwest;whiteSpace=wrap;html=1;fontSize=13;spacing=2;rounded=0;labelBackgroundColor=none;fontColor=#393C56;fontStyle=1" vertex="1" parent="Lri-4pAWPh4FQ8ncXx80-30">
          <mxGeometry y="52" width="240" height="26" as="geometry" />
        </mxCell>
        <mxCell id="Lri-4pAWPh4FQ8ncXx80-34" value="-totalPrice: double" style="text;strokeColor=none;fillColor=none;align=left;verticalAlign=top;spacingLeft=4;spacingRight=4;overflow=hidden;rotatable=0;points=[[0,0.5],[1,0.5]];portConstraint=eastwest;whiteSpace=wrap;html=1;fontSize=13;spacing=2;rounded=0;labelBackgroundColor=none;fontColor=#393C56;fontStyle=1" vertex="1" parent="Lri-4pAWPh4FQ8ncXx80-30">
          <mxGeometry y="78" width="240" height="26" as="geometry" />
        </mxCell>
        <mxCell id="Lri-4pAWPh4FQ8ncXx80-31" value="+orderList: List &amp;lt;Pizza&amp;gt;" style="text;strokeColor=none;fillColor=none;align=left;verticalAlign=top;spacingLeft=4;spacingRight=4;overflow=hidden;rotatable=0;points=[[0,0.5],[1,0.5]];portConstraint=eastwest;whiteSpace=wrap;html=1;fontSize=13;spacing=2;rounded=0;labelBackgroundColor=none;fontColor=#393C56;fontStyle=1" vertex="1" parent="Lri-4pAWPh4FQ8ncXx80-30">
          <mxGeometry y="104" width="240" height="26" as="geometry" />
        </mxCell>
        <mxCell id="Lri-4pAWPh4FQ8ncXx80-101" value="" style="line;strokeWidth=1;fillColor=none;align=left;verticalAlign=middle;spacingTop=-1;spacingLeft=3;spacingRight=3;rotatable=0;labelPosition=right;points=[];portConstraint=eastwest;strokeColor=#E07A5F;labelBackgroundColor=none;fontColor=#393C56;fontSize=13;fontStyle=1" vertex="1" parent="Lri-4pAWPh4FQ8ncXx80-30">
          <mxGeometry y="130" width="240" height="8" as="geometry" />
        </mxCell>
        <mxCell id="Lri-4pAWPh4FQ8ncXx80-35" value="+ShowOrder();" style="text;strokeColor=none;fillColor=none;align=left;verticalAlign=top;spacingLeft=4;spacingRight=4;overflow=hidden;rotatable=0;points=[[0,0.5],[1,0.5]];portConstraint=eastwest;whiteSpace=wrap;html=1;fontSize=13;spacing=2;rounded=0;labelBackgroundColor=none;fontColor=#393C56;fontStyle=1" vertex="1" parent="Lri-4pAWPh4FQ8ncXx80-30">
          <mxGeometry y="138" width="240" height="26" as="geometry" />
        </mxCell>
        <mxCell id="Lri-4pAWPh4FQ8ncXx80-36" value="+AddPizzaToOrder();" style="text;strokeColor=none;fillColor=none;align=left;verticalAlign=top;spacingLeft=4;spacingRight=4;overflow=hidden;rotatable=0;points=[[0,0.5],[1,0.5]];portConstraint=eastwest;whiteSpace=wrap;html=1;fontSize=13;spacing=2;rounded=0;labelBackgroundColor=none;fontColor=#393C56;fontStyle=1" vertex="1" parent="Lri-4pAWPh4FQ8ncXx80-30">
          <mxGeometry y="164" width="240" height="26" as="geometry" />
        </mxCell>
        <mxCell id="Lri-4pAWPh4FQ8ncXx80-37" value="Store" style="swimlane;fontStyle=1;childLayout=stackLayout;horizontal=1;startSize=26;fillColor=none;horizontalStack=0;resizeParent=1;resizeParentMax=0;resizeLast=0;collapsible=1;marginBottom=0;whiteSpace=wrap;html=1;fontSize=13;spacing=2;rounded=0;labelBackgroundColor=none;strokeColor=#E07A5F;fontColor=#393C56;" vertex="1" parent="WIyWlLk6GJQsqaUBKTNV-1">
          <mxGeometry x="902.8399999999999" y="159" width="199" height="286" as="geometry" />
        </mxCell>
        <mxCell id="Lri-4pAWPh4FQ8ncXx80-38" value="+ReadUserInt()" style="text;strokeColor=none;fillColor=none;align=left;verticalAlign=top;spacingLeft=4;spacingRight=4;overflow=hidden;rotatable=0;points=[[0,0.5],[1,0.5]];portConstraint=eastwest;whiteSpace=wrap;html=1;fontSize=13;spacing=2;rounded=0;labelBackgroundColor=none;fontColor=#393C56;fontStyle=1" vertex="1" parent="Lri-4pAWPh4FQ8ncXx80-37">
          <mxGeometry y="26" width="199" height="26" as="geometry" />
        </mxCell>
        <mxCell id="Lri-4pAWPh4FQ8ncXx80-39" value="+ReadYesNo()" style="text;strokeColor=none;fillColor=none;align=left;verticalAlign=top;spacingLeft=4;spacingRight=4;overflow=hidden;rotatable=0;points=[[0,0.5],[1,0.5]];portConstraint=eastwest;whiteSpace=wrap;html=1;fontSize=13;spacing=2;rounded=0;labelBackgroundColor=none;fontColor=#393C56;fontStyle=1" vertex="1" parent="Lri-4pAWPh4FQ8ncXx80-37">
          <mxGeometry y="52" width="199" height="26" as="geometry" />
        </mxCell>
        <mxCell id="Lri-4pAWPh4FQ8ncXx80-40" value="+ReadCustomerInt()" style="text;strokeColor=none;fillColor=none;align=left;verticalAlign=top;spacingLeft=4;spacingRight=4;overflow=hidden;rotatable=0;points=[[0,0.5],[1,0.5]];portConstraint=eastwest;whiteSpace=wrap;html=1;fontSize=13;spacing=2;rounded=0;labelBackgroundColor=none;fontColor=#393C56;fontStyle=1" vertex="1" parent="Lri-4pAWPh4FQ8ncXx80-37">
          <mxGeometry y="78" width="199" height="26" as="geometry" />
        </mxCell>
        <mxCell id="Lri-4pAWPh4FQ8ncXx80-41" value="+PressKeyToCont()" style="text;strokeColor=none;fillColor=none;align=left;verticalAlign=top;spacingLeft=4;spacingRight=4;overflow=hidden;rotatable=0;points=[[0,0.5],[1,0.5]];portConstraint=eastwest;whiteSpace=wrap;html=1;fontSize=13;spacing=2;rounded=0;labelBackgroundColor=none;fontColor=#393C56;fontStyle=1" vertex="1" parent="Lri-4pAWPh4FQ8ncXx80-37">
          <mxGeometry y="104" width="199" height="26" as="geometry" />
        </mxCell>
        <mxCell id="Lri-4pAWPh4FQ8ncXx80-42" value="+ShowMenuOptions()" style="text;strokeColor=none;fillColor=none;align=left;verticalAlign=top;spacingLeft=4;spacingRight=4;overflow=hidden;rotatable=0;points=[[0,0.5],[1,0.5]];portConstraint=eastwest;whiteSpace=wrap;html=1;fontSize=13;spacing=2;rounded=0;labelBackgroundColor=none;fontColor=#393C56;fontStyle=1" vertex="1" parent="Lri-4pAWPh4FQ8ncXx80-37">
          <mxGeometry y="130" width="199" height="26" as="geometry" />
        </mxCell>
        <mxCell id="Lri-4pAWPh4FQ8ncXx80-43" value="+RunMenuOptions()" style="text;strokeColor=none;fillColor=none;align=left;verticalAlign=top;spacingLeft=4;spacingRight=4;overflow=hidden;rotatable=0;points=[[0,0.5],[1,0.5]];portConstraint=eastwest;whiteSpace=wrap;html=1;fontSize=13;spacing=2;rounded=0;labelBackgroundColor=none;fontColor=#393C56;fontStyle=1" vertex="1" parent="Lri-4pAWPh4FQ8ncXx80-37">
          <mxGeometry y="156" width="199" height="26" as="geometry" />
        </mxCell>
        <mxCell id="Lri-4pAWPh4FQ8ncXx80-44" value="+ShowCustomerOptions()" style="text;strokeColor=none;fillColor=none;align=left;verticalAlign=top;spacingLeft=4;spacingRight=4;overflow=hidden;rotatable=0;points=[[0,0.5],[1,0.5]];portConstraint=eastwest;whiteSpace=wrap;html=1;fontSize=13;spacing=2;rounded=0;labelBackgroundColor=none;fontColor=#393C56;fontStyle=1" vertex="1" parent="Lri-4pAWPh4FQ8ncXx80-37">
          <mxGeometry y="182" width="199" height="26" as="geometry" />
        </mxCell>
        <mxCell id="Lri-4pAWPh4FQ8ncXx80-45" value="+RunCustomerOptions()" style="text;strokeColor=none;fillColor=none;align=left;verticalAlign=top;spacingLeft=4;spacingRight=4;overflow=hidden;rotatable=0;points=[[0,0.5],[1,0.5]];portConstraint=eastwest;whiteSpace=wrap;html=1;fontSize=13;spacing=2;rounded=0;labelBackgroundColor=none;fontColor=#393C56;fontStyle=1" vertex="1" parent="Lri-4pAWPh4FQ8ncXx80-37">
          <mxGeometry y="208" width="199" height="26" as="geometry" />
        </mxCell>
        <mxCell id="Lri-4pAWPh4FQ8ncXx80-46" value="+ShowStore()" style="text;strokeColor=none;fillColor=none;align=left;verticalAlign=top;spacingLeft=4;spacingRight=4;overflow=hidden;rotatable=0;points=[[0,0.5],[1,0.5]];portConstraint=eastwest;whiteSpace=wrap;html=1;fontSize=13;spacing=2;rounded=0;labelBackgroundColor=none;fontColor=#393C56;fontStyle=1" vertex="1" parent="Lri-4pAWPh4FQ8ncXx80-37">
          <mxGeometry y="234" width="199" height="26" as="geometry" />
        </mxCell>
        <mxCell id="Lri-4pAWPh4FQ8ncXx80-47" value="+RunStore()" style="text;strokeColor=none;fillColor=none;align=left;verticalAlign=top;spacingLeft=4;spacingRight=4;overflow=hidden;rotatable=0;points=[[0,0.5],[1,0.5]];portConstraint=eastwest;whiteSpace=wrap;html=1;fontSize=13;spacing=2;rounded=0;labelBackgroundColor=none;fontColor=#393C56;fontStyle=1" vertex="1" parent="Lri-4pAWPh4FQ8ncXx80-37">
          <mxGeometry y="260" width="199" height="26" as="geometry" />
        </mxCell>
        <mxCell id="Lri-4pAWPh4FQ8ncXx80-48" value="Customer" style="swimlane;fontStyle=1;childLayout=stackLayout;horizontal=1;startSize=26;fillColor=none;horizontalStack=0;resizeParent=1;resizeParentMax=0;resizeLast=0;collapsible=1;marginBottom=0;whiteSpace=wrap;html=1;fontSize=13;spacing=2;rounded=0;labelBackgroundColor=none;strokeColor=#E07A5F;fontColor=#393C56;" vertex="1" parent="WIyWlLk6GJQsqaUBKTNV-1">
          <mxGeometry x="70" y="539" width="240" height="268" as="geometry" />
        </mxCell>
        <mxCell id="Lri-4pAWPh4FQ8ncXx80-49" value="-nextOrderId: int" style="text;strokeColor=none;fillColor=none;align=left;verticalAlign=top;spacingLeft=4;spacingRight=4;overflow=hidden;rotatable=0;points=[[0,0.5],[1,0.5]];portConstraint=eastwest;whiteSpace=wrap;html=1;fontSize=13;spacing=2;rounded=0;labelBackgroundColor=none;fontColor=#393C56;fontStyle=1" vertex="1" parent="Lri-4pAWPh4FQ8ncXx80-48">
          <mxGeometry y="26" width="240" height="26" as="geometry" />
        </mxCell>
        <mxCell id="Lri-4pAWPh4FQ8ncXx80-109" value="+userID: String" style="text;strokeColor=none;fillColor=none;align=left;verticalAlign=top;spacingLeft=4;spacingRight=4;overflow=hidden;rotatable=0;points=[[0,0.5],[1,0.5]];portConstraint=eastwest;whiteSpace=wrap;html=1;fontSize=13;spacing=2;rounded=0;labelBackgroundColor=none;fontColor=#393C56;fontStyle=1" vertex="1" parent="Lri-4pAWPh4FQ8ncXx80-48">
          <mxGeometry y="52" width="240" height="26" as="geometry" />
        </mxCell>
        <mxCell id="Lri-4pAWPh4FQ8ncXx80-50" value="+name: String" style="text;strokeColor=none;fillColor=none;align=left;verticalAlign=top;spacingLeft=4;spacingRight=4;overflow=hidden;rotatable=0;points=[[0,0.5],[1,0.5]];portConstraint=eastwest;whiteSpace=wrap;html=1;fontSize=13;spacing=2;rounded=0;labelBackgroundColor=none;fontColor=#393C56;fontStyle=1" vertex="1" parent="Lri-4pAWPh4FQ8ncXx80-48">
          <mxGeometry y="78" width="240" height="26" as="geometry" />
        </mxCell>
        <mxCell id="Lri-4pAWPh4FQ8ncXx80-51" value="+address: String" style="text;strokeColor=none;fillColor=none;align=left;verticalAlign=top;spacingLeft=4;spacingRight=4;overflow=hidden;rotatable=0;points=[[0,0.5],[1,0.5]];portConstraint=eastwest;whiteSpace=wrap;html=1;fontSize=13;spacing=2;rounded=0;labelBackgroundColor=none;fontColor=#393C56;fontStyle=1" vertex="1" parent="Lri-4pAWPh4FQ8ncXx80-48">
          <mxGeometry y="104" width="240" height="26" as="geometry" />
        </mxCell>
        <mxCell id="Lri-4pAWPh4FQ8ncXx80-52" value="+postalCode: String" style="text;strokeColor=none;fillColor=none;align=left;verticalAlign=top;spacingLeft=4;spacingRight=4;overflow=hidden;rotatable=0;points=[[0,0.5],[1,0.5]];portConstraint=eastwest;whiteSpace=wrap;html=1;fontSize=13;spacing=2;rounded=0;labelBackgroundColor=none;fontColor=#393C56;fontStyle=1" vertex="1" parent="Lri-4pAWPh4FQ8ncXx80-48">
          <mxGeometry y="130" width="240" height="26" as="geometry" />
        </mxCell>
        <mxCell id="Lri-4pAWPh4FQ8ncXx80-53" value="+city: String" style="text;strokeColor=none;fillColor=none;align=left;verticalAlign=top;spacingLeft=4;spacingRight=4;overflow=hidden;rotatable=0;points=[[0,0.5],[1,0.5]];portConstraint=eastwest;whiteSpace=wrap;html=1;fontSize=13;spacing=2;rounded=0;labelBackgroundColor=none;fontColor=#393C56;fontStyle=1" vertex="1" parent="Lri-4pAWPh4FQ8ncXx80-48">
          <mxGeometry y="156" width="240" height="26" as="geometry" />
        </mxCell>
        <mxCell id="Lri-4pAWPh4FQ8ncXx80-54" value="+phone: String" style="text;strokeColor=none;fillColor=none;align=left;verticalAlign=top;spacingLeft=4;spacingRight=4;overflow=hidden;rotatable=0;points=[[0,0.5],[1,0.5]];portConstraint=eastwest;whiteSpace=wrap;html=1;fontSize=13;spacing=2;rounded=0;labelBackgroundColor=none;fontColor=#393C56;fontStyle=1" vertex="1" parent="Lri-4pAWPh4FQ8ncXx80-48">
          <mxGeometry y="182" width="240" height="26" as="geometry" />
        </mxCell>
        <mxCell id="Lri-4pAWPh4FQ8ncXx80-55" value="+memberStatus: bool" style="text;strokeColor=none;fillColor=none;align=left;verticalAlign=top;spacingLeft=4;spacingRight=4;overflow=hidden;rotatable=0;points=[[0,0.5],[1,0.5]];portConstraint=eastwest;whiteSpace=wrap;html=1;fontSize=13;spacing=2;rounded=0;labelBackgroundColor=none;fontColor=#393C56;fontStyle=1" vertex="1" parent="Lri-4pAWPh4FQ8ncXx80-48">
          <mxGeometry y="208" width="240" height="26" as="geometry" />
        </mxCell>
        <mxCell id="Lri-4pAWPh4FQ8ncXx80-104" value="" style="line;strokeWidth=1;fillColor=none;align=left;verticalAlign=middle;spacingTop=-1;spacingLeft=3;spacingRight=3;rotatable=0;labelPosition=right;points=[];portConstraint=eastwest;strokeColor=#E07A5F;labelBackgroundColor=none;fontColor=#393C56;fontSize=13;fontStyle=1" vertex="1" parent="Lri-4pAWPh4FQ8ncXx80-48">
          <mxGeometry y="234" width="240" height="8" as="geometry" />
        </mxCell>
        <mxCell id="Lri-4pAWPh4FQ8ncXx80-102" value="+ToString();" style="text;strokeColor=none;fillColor=none;align=left;verticalAlign=top;spacingLeft=4;spacingRight=4;overflow=hidden;rotatable=0;points=[[0,0.5],[1,0.5]];portConstraint=eastwest;whiteSpace=wrap;html=1;fontSize=13;spacing=2;rounded=0;labelBackgroundColor=none;fontColor=#393C56;fontStyle=1" vertex="1" parent="Lri-4pAWPh4FQ8ncXx80-48">
          <mxGeometry y="242" width="240" height="26" as="geometry" />
        </mxCell>
        <mxCell id="Lri-4pAWPh4FQ8ncXx80-56" value="PizzaMenu" style="swimlane;fontStyle=1;childLayout=stackLayout;horizontal=1;startSize=26;fillColor=none;horizontalStack=0;resizeParent=1;resizeParentMax=0;resizeLast=0;collapsible=1;marginBottom=0;whiteSpace=wrap;html=1;fontSize=13;spacing=2;rounded=0;labelBackgroundColor=none;strokeColor=#E07A5F;fontColor=#393C56;" vertex="1" parent="WIyWlLk6GJQsqaUBKTNV-1">
          <mxGeometry x="70" y="62" width="240" height="164" as="geometry" />
        </mxCell>
        <mxCell id="Lri-4pAWPh4FQ8ncXx80-57" value="+menu: Dictionary &amp;lt;int, Pizza&amp;gt;" style="text;strokeColor=none;fillColor=none;align=left;verticalAlign=top;spacingLeft=4;spacingRight=4;overflow=hidden;rotatable=0;points=[[0,0.5],[1,0.5]];portConstraint=eastwest;whiteSpace=wrap;html=1;fontSize=13;spacing=2;rounded=0;labelBackgroundColor=none;fontColor=#393C56;fontStyle=1" vertex="1" parent="Lri-4pAWPh4FQ8ncXx80-56">
          <mxGeometry y="26" width="240" height="26" as="geometry" />
        </mxCell>
        <mxCell id="Lri-4pAWPh4FQ8ncXx80-106" value="" style="line;strokeWidth=1;fillColor=none;align=left;verticalAlign=middle;spacingTop=-1;spacingLeft=3;spacingRight=3;rotatable=0;labelPosition=right;points=[];portConstraint=eastwest;strokeColor=#E07A5F;labelBackgroundColor=none;fontColor=#393C56;fontSize=13;fontStyle=1" vertex="1" parent="Lri-4pAWPh4FQ8ncXx80-56">
          <mxGeometry y="52" width="240" height="8" as="geometry" />
        </mxCell>
        <mxCell id="Lri-4pAWPh4FQ8ncXx80-59" value="+ShowMenu();" style="text;strokeColor=none;fillColor=none;align=left;verticalAlign=top;spacingLeft=4;spacingRight=4;overflow=hidden;rotatable=0;points=[[0,0.5],[1,0.5]];portConstraint=eastwest;whiteSpace=wrap;html=1;fontSize=13;spacing=2;rounded=0;labelBackgroundColor=none;fontColor=#393C56;fontStyle=1" vertex="1" parent="Lri-4pAWPh4FQ8ncXx80-56">
          <mxGeometry y="60" width="240" height="26" as="geometry" />
        </mxCell>
        <mxCell id="Lri-4pAWPh4FQ8ncXx80-58" value="+AddMenuItem();" style="text;strokeColor=none;fillColor=none;align=left;verticalAlign=top;spacingLeft=4;spacingRight=4;overflow=hidden;rotatable=0;points=[[0,0.5],[1,0.5]];portConstraint=eastwest;whiteSpace=wrap;html=1;fontSize=13;spacing=2;rounded=0;labelBackgroundColor=none;fontColor=#393C56;fontStyle=1" vertex="1" parent="Lri-4pAWPh4FQ8ncXx80-56">
          <mxGeometry y="86" width="240" height="26" as="geometry" />
        </mxCell>
        <mxCell id="Lri-4pAWPh4FQ8ncXx80-60" value="+DeleteMenuItem();" style="text;strokeColor=none;fillColor=none;align=left;verticalAlign=top;spacingLeft=4;spacingRight=4;overflow=hidden;rotatable=0;points=[[0,0.5],[1,0.5]];portConstraint=eastwest;whiteSpace=wrap;html=1;fontSize=13;spacing=2;rounded=0;labelBackgroundColor=none;fontColor=#393C56;fontStyle=1" vertex="1" parent="Lri-4pAWPh4FQ8ncXx80-56">
          <mxGeometry y="112" width="240" height="26" as="geometry" />
        </mxCell>
        <mxCell id="Lri-4pAWPh4FQ8ncXx80-61" value="+SearchMenu();" style="text;strokeColor=none;fillColor=none;align=left;verticalAlign=top;spacingLeft=4;spacingRight=4;overflow=hidden;rotatable=0;points=[[0,0.5],[1,0.5]];portConstraint=eastwest;whiteSpace=wrap;html=1;fontSize=13;spacing=2;rounded=0;labelBackgroundColor=none;fontColor=#393C56;fontStyle=1" vertex="1" parent="Lri-4pAWPh4FQ8ncXx80-56">
          <mxGeometry y="138" width="240" height="26" as="geometry" />
        </mxCell>
        <mxCell id="Lri-4pAWPh4FQ8ncXx80-62" value="CustomerFile" style="swimlane;fontStyle=1;childLayout=stackLayout;horizontal=1;startSize=26;fillColor=none;horizontalStack=0;resizeParent=1;resizeParentMax=0;resizeLast=0;collapsible=1;marginBottom=0;whiteSpace=wrap;html=1;fontSize=13;spacing=2;rounded=0;labelBackgroundColor=none;strokeColor=#E07A5F;fontColor=#393C56;" vertex="1" parent="WIyWlLk6GJQsqaUBKTNV-1">
          <mxGeometry x="462" y="600" width="245" height="190" as="geometry" />
        </mxCell>
        <mxCell id="Lri-4pAWPh4FQ8ncXx80-63" value="+customers: List &amp;lt;Customer&amp;gt;" style="text;strokeColor=none;fillColor=none;align=left;verticalAlign=top;spacingLeft=4;spacingRight=4;overflow=hidden;rotatable=0;points=[[0,0.5],[1,0.5]];portConstraint=eastwest;whiteSpace=wrap;html=1;fontSize=13;spacing=2;rounded=0;labelBackgroundColor=none;fontColor=#393C56;fontStyle=1" vertex="1" parent="Lri-4pAWPh4FQ8ncXx80-62">
          <mxGeometry y="26" width="245" height="26" as="geometry" />
        </mxCell>
        <mxCell id="Lri-4pAWPh4FQ8ncXx80-105" value="" style="line;strokeWidth=1;fillColor=none;align=left;verticalAlign=middle;spacingTop=-1;spacingLeft=3;spacingRight=3;rotatable=0;labelPosition=right;points=[];portConstraint=eastwest;strokeColor=#E07A5F;labelBackgroundColor=none;fontColor=#393C56;fontSize=13;fontStyle=1" vertex="1" parent="Lri-4pAWPh4FQ8ncXx80-62">
          <mxGeometry y="52" width="245" height="8" as="geometry" />
        </mxCell>
        <mxCell id="Lri-4pAWPh4FQ8ncXx80-64" value="+AddCustomer();" style="text;strokeColor=none;fillColor=none;align=left;verticalAlign=top;spacingLeft=4;spacingRight=4;overflow=hidden;rotatable=0;points=[[0,0.5],[1,0.5]];portConstraint=eastwest;whiteSpace=wrap;html=1;fontSize=13;spacing=2;rounded=0;labelBackgroundColor=none;fontColor=#393C56;fontStyle=1" vertex="1" parent="Lri-4pAWPh4FQ8ncXx80-62">
          <mxGeometry y="60" width="245" height="26" as="geometry" />
        </mxCell>
        <mxCell id="Lri-4pAWPh4FQ8ncXx80-65" value="+ShowCustomers();" style="text;strokeColor=none;fillColor=none;align=left;verticalAlign=top;spacingLeft=4;spacingRight=4;overflow=hidden;rotatable=0;points=[[0,0.5],[1,0.5]];portConstraint=eastwest;whiteSpace=wrap;html=1;fontSize=13;spacing=2;rounded=0;labelBackgroundColor=none;fontColor=#393C56;fontStyle=1" vertex="1" parent="Lri-4pAWPh4FQ8ncXx80-62">
          <mxGeometry y="86" width="245" height="26" as="geometry" />
        </mxCell>
        <mxCell id="Lri-4pAWPh4FQ8ncXx80-66" value="+UpdateCustomers();" style="text;strokeColor=none;fillColor=none;align=left;verticalAlign=top;spacingLeft=4;spacingRight=4;overflow=hidden;rotatable=0;points=[[0,0.5],[1,0.5]];portConstraint=eastwest;whiteSpace=wrap;html=1;fontSize=13;spacing=2;rounded=0;labelBackgroundColor=none;fontColor=#393C56;fontStyle=1" vertex="1" parent="Lri-4pAWPh4FQ8ncXx80-62">
          <mxGeometry y="112" width="245" height="26" as="geometry" />
        </mxCell>
        <mxCell id="Lri-4pAWPh4FQ8ncXx80-67" value="+DeleteCustomer();" style="text;strokeColor=none;fillColor=none;align=left;verticalAlign=top;spacingLeft=4;spacingRight=4;overflow=hidden;rotatable=0;points=[[0,0.5],[1,0.5]];portConstraint=eastwest;whiteSpace=wrap;html=1;fontSize=13;spacing=2;rounded=0;labelBackgroundColor=none;fontColor=#393C56;fontStyle=1" vertex="1" parent="Lri-4pAWPh4FQ8ncXx80-62">
          <mxGeometry y="138" width="245" height="26" as="geometry" />
        </mxCell>
        <mxCell id="Lri-4pAWPh4FQ8ncXx80-68" value="+FindCustomer(int);" style="text;strokeColor=none;fillColor=none;align=left;verticalAlign=top;spacingLeft=4;spacingRight=4;overflow=hidden;rotatable=0;points=[[0,0.5],[1,0.5]];portConstraint=eastwest;whiteSpace=wrap;html=1;fontSize=13;spacing=2;rounded=0;labelBackgroundColor=none;fontColor=#393C56;fontStyle=1" vertex="1" parent="Lri-4pAWPh4FQ8ncXx80-62">
          <mxGeometry y="164" width="245" height="26" as="geometry" />
        </mxCell>
        <mxCell id="Lri-4pAWPh4FQ8ncXx80-69" value="" style="endArrow=diamondThin;html=1;edgeStyle=orthogonalEdgeStyle;rounded=0;endFill=0;startSize=6;endSize=25;fontSize=13;labelBackgroundColor=none;strokeColor=#E07A5F;fontColor=default;fontStyle=1" edge="1" parent="WIyWlLk6GJQsqaUBKTNV-1" source="Lri-4pAWPh4FQ8ncXx80-48" target="Lri-4pAWPh4FQ8ncXx80-62">
          <mxGeometry relative="1" as="geometry">
            <mxPoint x="280" y="668.29" as="sourcePoint" />
            <mxPoint x="440" y="668.29" as="targetPoint" />
          </mxGeometry>
        </mxCell>
        <mxCell id="Lri-4pAWPh4FQ8ncXx80-70" value="0..*" style="edgeLabel;resizable=0;html=1;align=left;verticalAlign=bottom;fontSize=13;rounded=0;labelBackgroundColor=none;fontColor=#393C56;fontStyle=1" connectable="0" vertex="1" parent="Lri-4pAWPh4FQ8ncXx80-69">
          <mxGeometry x="-1" relative="1" as="geometry">
            <mxPoint x="2" as="offset" />
          </mxGeometry>
        </mxCell>
        <mxCell id="Lri-4pAWPh4FQ8ncXx80-71" value="1" style="edgeLabel;resizable=0;html=1;align=right;verticalAlign=bottom;fontSize=13;rounded=0;labelBackgroundColor=none;fontColor=#393C56;fontStyle=1" connectable="0" vertex="1" parent="Lri-4pAWPh4FQ8ncXx80-69">
          <mxGeometry x="1" relative="1" as="geometry">
            <mxPoint x="-26" as="offset" />
          </mxGeometry>
        </mxCell>
        <mxCell id="Lri-4pAWPh4FQ8ncXx80-72" value="" style="endArrow=diamondThin;html=1;edgeStyle=orthogonalEdgeStyle;rounded=0;endFill=0;startSize=6;endSize=25;fontSize=13;labelBackgroundColor=none;strokeColor=#E07A5F;fontColor=default;fontStyle=1" edge="1" parent="WIyWlLk6GJQsqaUBKTNV-1" source="Lri-4pAWPh4FQ8ncXx80-12" target="Lri-4pAWPh4FQ8ncXx80-56">
          <mxGeometry relative="1" as="geometry">
            <mxPoint x="505" y="230" as="sourcePoint" />
            <mxPoint x="238" y="230" as="targetPoint" />
          </mxGeometry>
        </mxCell>
        <mxCell id="Lri-4pAWPh4FQ8ncXx80-73" value="0..*" style="edgeLabel;resizable=0;html=1;align=left;verticalAlign=bottom;fontSize=13;rounded=0;labelBackgroundColor=none;fontColor=#393C56;fontStyle=1" connectable="0" vertex="1" parent="Lri-4pAWPh4FQ8ncXx80-72">
          <mxGeometry x="-1" relative="1" as="geometry">
            <mxPoint x="-27" as="offset" />
          </mxGeometry>
        </mxCell>
        <mxCell id="Lri-4pAWPh4FQ8ncXx80-74" value="1" style="edgeLabel;resizable=0;html=1;align=right;verticalAlign=bottom;fontSize=13;rounded=0;labelBackgroundColor=none;fontColor=#393C56;fontStyle=1" connectable="0" vertex="1" parent="Lri-4pAWPh4FQ8ncXx80-72">
          <mxGeometry x="1" relative="1" as="geometry">
            <mxPoint x="40" as="offset" />
          </mxGeometry>
        </mxCell>
        <mxCell id="Lri-4pAWPh4FQ8ncXx80-75" value="" style="endArrow=diamondThin;html=1;edgeStyle=orthogonalEdgeStyle;rounded=0;fontSize=13;startArrow=none;startFill=0;startSize=25;endFill=0;endSize=25;labelBackgroundColor=none;strokeColor=#E07A5F;fontColor=default;fontStyle=1" edge="1" parent="WIyWlLk6GJQsqaUBKTNV-1" source="Lri-4pAWPh4FQ8ncXx80-56" target="Lri-4pAWPh4FQ8ncXx80-30">
          <mxGeometry relative="1" as="geometry">
            <mxPoint x="460" y="430" as="sourcePoint" />
            <mxPoint x="620" y="430" as="targetPoint" />
          </mxGeometry>
        </mxCell>
        <mxCell id="Lri-4pAWPh4FQ8ncXx80-76" value="1" style="edgeLabel;resizable=0;html=1;align=left;verticalAlign=bottom;fontSize=13;rounded=0;labelBackgroundColor=none;fontColor=#393C56;fontStyle=1" connectable="0" vertex="1" parent="Lri-4pAWPh4FQ8ncXx80-75">
          <mxGeometry x="-1" relative="1" as="geometry">
            <mxPoint x="9" y="20" as="offset" />
          </mxGeometry>
        </mxCell>
        <mxCell id="Lri-4pAWPh4FQ8ncXx80-77" value="0..*" style="edgeLabel;resizable=0;html=1;align=right;verticalAlign=bottom;fontSize=13;rounded=0;labelBackgroundColor=none;fontColor=#393C56;fontStyle=1" connectable="0" vertex="1" parent="Lri-4pAWPh4FQ8ncXx80-75">
          <mxGeometry x="1" relative="1" as="geometry">
            <mxPoint x="34" y="-2" as="offset" />
          </mxGeometry>
        </mxCell>
        <mxCell id="Lri-4pAWPh4FQ8ncXx80-78" value="" style="endArrow=open;endSize=12;dashed=1;html=1;rounded=0;fontSize=13;labelBackgroundColor=none;strokeColor=#E07A5F;fontColor=default;fontStyle=1" edge="1" parent="WIyWlLk6GJQsqaUBKTNV-1" source="Lri-4pAWPh4FQ8ncXx80-16" target="Lri-4pAWPh4FQ8ncXx80-37">
          <mxGeometry x="-0.0064" width="160" relative="1" as="geometry">
            <mxPoint x="771.8399999999999" y="500" as="sourcePoint" />
            <mxPoint x="931.8399999999999" y="500" as="targetPoint" />
            <mxPoint as="offset" />
          </mxGeometry>
        </mxCell>
        <mxCell id="Lri-4pAWPh4FQ8ncXx80-79" value="" style="endArrow=none;html=1;edgeStyle=orthogonalEdgeStyle;rounded=0;labelBackgroundColor=none;strokeColor=#E07A5F;fontColor=default;fontStyle=1;fontSize=13;" edge="1" parent="WIyWlLk6GJQsqaUBKTNV-1" source="Lri-4pAWPh4FQ8ncXx80-30" target="Lri-4pAWPh4FQ8ncXx80-90">
          <mxGeometry relative="1" as="geometry">
            <mxPoint x="290" y="413.64" as="sourcePoint" />
            <mxPoint x="480" y="414" as="targetPoint" />
          </mxGeometry>
        </mxCell>
        <mxCell id="Lri-4pAWPh4FQ8ncXx80-80" value="0..*" style="edgeLabel;resizable=0;html=1;align=left;verticalAlign=bottom;fontSize=13;rounded=0;labelBackgroundColor=none;fontColor=#393C56;fontStyle=1" connectable="0" vertex="1" parent="Lri-4pAWPh4FQ8ncXx80-79">
          <mxGeometry x="-1" relative="1" as="geometry">
            <mxPoint x="2" as="offset" />
          </mxGeometry>
        </mxCell>
        <mxCell id="Lri-4pAWPh4FQ8ncXx80-81" value="1" style="edgeLabel;resizable=0;html=1;align=right;verticalAlign=bottom;fontSize=13;rounded=0;labelBackgroundColor=none;fontColor=#393C56;fontStyle=1" connectable="0" vertex="1" parent="Lri-4pAWPh4FQ8ncXx80-79">
          <mxGeometry x="1" relative="1" as="geometry">
            <mxPoint x="-3" as="offset" />
          </mxGeometry>
        </mxCell>
        <mxCell id="Lri-4pAWPh4FQ8ncXx80-82" value="" style="endArrow=none;html=1;edgeStyle=orthogonalEdgeStyle;rounded=0;fontSize=13;startArrow=open;startFill=0;endSize=9;startSize=12;dashed=1;labelBackgroundColor=none;strokeColor=#E07A5F;fontColor=default;fontStyle=1" edge="1" parent="WIyWlLk6GJQsqaUBKTNV-1" source="Lri-4pAWPh4FQ8ncXx80-90" target="Lri-4pAWPh4FQ8ncXx80-37">
          <mxGeometry relative="1" as="geometry">
            <mxPoint x="680" y="414" as="sourcePoint" />
            <mxPoint x="790" y="360" as="targetPoint" />
          </mxGeometry>
        </mxCell>
        <mxCell id="Lri-4pAWPh4FQ8ncXx80-83" value="1" style="edgeLabel;resizable=0;html=1;align=left;verticalAlign=bottom;fontSize=13;rounded=0;labelBackgroundColor=none;fontColor=#393C56;fontStyle=1" connectable="0" vertex="1" parent="Lri-4pAWPh4FQ8ncXx80-82">
          <mxGeometry x="-1" relative="1" as="geometry">
            <mxPoint x="2" y="-5" as="offset" />
          </mxGeometry>
        </mxCell>
        <mxCell id="Lri-4pAWPh4FQ8ncXx80-84" value="1" style="edgeLabel;resizable=0;html=1;align=right;verticalAlign=bottom;fontSize=13;rounded=0;labelBackgroundColor=none;fontColor=#393C56;fontStyle=1" connectable="0" vertex="1" parent="Lri-4pAWPh4FQ8ncXx80-82">
          <mxGeometry x="1" relative="1" as="geometry">
            <mxPoint x="-3" y="-1" as="offset" />
          </mxGeometry>
        </mxCell>
        <mxCell id="Lri-4pAWPh4FQ8ncXx80-85" value="&lt;span style=&quot;font-size: 13px;&quot;&gt;&lt;span style=&quot;font-size: 13px;&quot;&gt;&amp;lt;&amp;lt; CREATE &amp;gt;&amp;gt;&lt;/span&gt;&lt;/span&gt;" style="edgeLabel;html=1;align=center;verticalAlign=middle;resizable=0;points=[];rounded=0;labelBackgroundColor=none;fontColor=#393C56;fontStyle=1;fontSize=13;" vertex="1" connectable="0" parent="Lri-4pAWPh4FQ8ncXx80-82">
          <mxGeometry x="-0.0267" relative="1" as="geometry">
            <mxPoint y="-10" as="offset" />
          </mxGeometry>
        </mxCell>
        <mxCell id="Lri-4pAWPh4FQ8ncXx80-86" value="" style="endArrow=none;html=1;edgeStyle=orthogonalEdgeStyle;rounded=0;fontSize=13;labelBackgroundColor=none;strokeColor=#E07A5F;fontColor=default;fontStyle=1" edge="1" parent="WIyWlLk6GJQsqaUBKTNV-1" source="Lri-4pAWPh4FQ8ncXx80-90" target="Lri-4pAWPh4FQ8ncXx80-62">
          <mxGeometry relative="1" as="geometry">
            <mxPoint x="580" y="531" as="sourcePoint" />
            <mxPoint x="585" y="604" as="targetPoint" />
          </mxGeometry>
        </mxCell>
        <mxCell id="Lri-4pAWPh4FQ8ncXx80-87" value="1" style="edgeLabel;resizable=0;html=1;align=left;verticalAlign=bottom;fontSize=13;rounded=0;labelBackgroundColor=none;fontColor=#393C56;fontStyle=1" connectable="0" vertex="1" parent="Lri-4pAWPh4FQ8ncXx80-86">
          <mxGeometry x="-1" relative="1" as="geometry">
            <mxPoint y="20" as="offset" />
          </mxGeometry>
        </mxCell>
        <mxCell id="Lri-4pAWPh4FQ8ncXx80-88" value="1" style="edgeLabel;resizable=0;html=1;align=right;verticalAlign=bottom;fontSize=13;rounded=0;labelBackgroundColor=none;fontColor=#393C56;fontStyle=1" connectable="0" vertex="1" parent="Lri-4pAWPh4FQ8ncXx80-86">
          <mxGeometry x="1" relative="1" as="geometry">
            <mxPoint x="10" as="offset" />
          </mxGeometry>
        </mxCell>
        <mxCell id="Lri-4pAWPh4FQ8ncXx80-89" value="&lt;span style=&quot;font-size: 13px;&quot;&gt;&lt;span style=&quot;font-size: 13px;&quot;&gt;&amp;lt;&amp;lt; USE &amp;gt;&amp;gt;&lt;/span&gt;&lt;/span&gt;" style="edgeLabel;html=1;align=center;verticalAlign=middle;resizable=0;points=[];rounded=0;labelBackgroundColor=none;fontColor=#393C56;fontStyle=1;fontSize=13;" vertex="1" connectable="0" parent="WIyWlLk6GJQsqaUBKTNV-1">
          <mxGeometry x="1007.8427586206897" y="492" as="geometry">
            <mxPoint x="-6" y="-2" as="offset" />
          </mxGeometry>
        </mxCell>
        <mxCell id="Lri-4pAWPh4FQ8ncXx80-90" value="OrderHandler" style="swimlane;fontStyle=1;childLayout=stackLayout;horizontal=1;startSize=26;fillColor=none;horizontalStack=0;resizeParent=1;resizeParentMax=0;resizeLast=0;collapsible=1;marginBottom=0;whiteSpace=wrap;html=1;fontSize=13;spacing=2;labelBackgroundColor=none;strokeColor=#E07A5F;fontColor=#393C56;" vertex="1" parent="WIyWlLk6GJQsqaUBKTNV-1">
          <mxGeometry x="462" y="270" width="245" height="242" as="geometry" />
        </mxCell>
        <mxCell id="Lri-4pAWPh4FQ8ncXx80-92" value="-logEntry: String" style="text;strokeColor=none;fillColor=none;align=left;verticalAlign=top;spacingLeft=4;spacingRight=4;overflow=hidden;rotatable=0;points=[[0,0.5],[1,0.5]];portConstraint=eastwest;whiteSpace=wrap;html=1;fontSize=13;spacing=2;labelBackgroundColor=none;fontColor=#393C56;fontStyle=1" vertex="1" parent="Lri-4pAWPh4FQ8ncXx80-90">
          <mxGeometry y="26" width="245" height="26" as="geometry" />
        </mxCell>
        <mxCell id="Lri-4pAWPh4FQ8ncXx80-93" value="-logRevenue: double" style="text;strokeColor=none;fillColor=none;align=left;verticalAlign=top;spacingLeft=4;spacingRight=4;overflow=hidden;rotatable=0;points=[[0,0.5],[1,0.5]];portConstraint=eastwest;whiteSpace=wrap;html=1;fontSize=13;spacing=2;labelBackgroundColor=none;fontColor=#393C56;fontStyle=1" vertex="1" parent="Lri-4pAWPh4FQ8ncXx80-90">
          <mxGeometry y="52" width="245" height="26" as="geometry" />
        </mxCell>
        <mxCell id="Lri-4pAWPh4FQ8ncXx80-91" value="+logList: List&amp;lt;Pizza&amp;gt;" style="text;strokeColor=none;fillColor=none;align=left;verticalAlign=top;spacingLeft=4;spacingRight=4;overflow=hidden;rotatable=0;points=[[0,0.5],[1,0.5]];portConstraint=eastwest;whiteSpace=wrap;html=1;fontSize=13;spacing=2;labelBackgroundColor=none;fontColor=#393C56;fontStyle=1" vertex="1" parent="Lri-4pAWPh4FQ8ncXx80-90">
          <mxGeometry y="78" width="245" height="26" as="geometry" />
        </mxCell>
        <mxCell id="Lri-4pAWPh4FQ8ncXx80-95" value="" style="line;strokeWidth=1;fillColor=none;align=left;verticalAlign=middle;spacingTop=-1;spacingLeft=3;spacingRight=3;rotatable=0;labelPosition=right;points=[];portConstraint=eastwest;strokeColor=#E07A5F;labelBackgroundColor=none;fontColor=#393C56;fontSize=13;fontStyle=1" vertex="1" parent="Lri-4pAWPh4FQ8ncXx80-90">
          <mxGeometry y="104" width="245" height="8" as="geometry" />
        </mxCell>
        <mxCell id="Lri-4pAWPh4FQ8ncXx80-96" value="+GenerateTimeStamp();" style="text;strokeColor=none;fillColor=none;align=left;verticalAlign=top;spacingLeft=4;spacingRight=4;overflow=hidden;rotatable=0;points=[[0,0.5],[1,0.5]];portConstraint=eastwest;whiteSpace=wrap;html=1;fontSize=13;spacing=2;labelBackgroundColor=none;fontColor=#393C56;fontStyle=1" vertex="1" parent="Lri-4pAWPh4FQ8ncXx80-90">
          <mxGeometry y="112" width="245" height="26" as="geometry" />
        </mxCell>
        <mxCell id="Lri-4pAWPh4FQ8ncXx80-99" value="+AddLog(PizzaOrder);" style="text;strokeColor=none;fillColor=none;align=left;verticalAlign=top;spacingLeft=4;spacingRight=4;overflow=hidden;rotatable=0;points=[[0,0.5],[1,0.5]];portConstraint=eastwest;whiteSpace=wrap;html=1;fontSize=13;spacing=2;labelBackgroundColor=none;fontColor=#393C56;fontStyle=1" vertex="1" parent="Lri-4pAWPh4FQ8ncXx80-90">
          <mxGeometry y="138" width="245" height="26" as="geometry" />
        </mxCell>
        <mxCell id="Lri-4pAWPh4FQ8ncXx80-97" value="+CreateOrder();" style="text;strokeColor=none;fillColor=none;align=left;verticalAlign=top;spacingLeft=4;spacingRight=4;overflow=hidden;rotatable=0;points=[[0,0.5],[1,0.5]];portConstraint=eastwest;whiteSpace=wrap;html=1;fontSize=13;spacing=2;labelBackgroundColor=none;fontColor=#393C56;fontStyle=1" vertex="1" parent="Lri-4pAWPh4FQ8ncXx80-90">
          <mxGeometry y="164" width="245" height="26" as="geometry" />
        </mxCell>
        <mxCell id="Lri-4pAWPh4FQ8ncXx80-100" value="+AddCustomerInfoPizza(Customer);" style="text;strokeColor=none;fillColor=none;align=left;verticalAlign=top;spacingLeft=4;spacingRight=4;overflow=hidden;rotatable=0;points=[[0,0.5],[1,0.5]];portConstraint=eastwest;whiteSpace=wrap;html=1;fontSize=13;spacing=2;labelBackgroundColor=none;fontColor=#393C56;fontStyle=1" vertex="1" parent="Lri-4pAWPh4FQ8ncXx80-90">
          <mxGeometry y="190" width="245" height="26" as="geometry" />
        </mxCell>
        <mxCell id="Lri-4pAWPh4FQ8ncXx80-98" value="+ShowLog();" style="text;strokeColor=none;fillColor=none;align=left;verticalAlign=top;spacingLeft=4;spacingRight=4;overflow=hidden;rotatable=0;points=[[0,0.5],[1,0.5]];portConstraint=eastwest;whiteSpace=wrap;html=1;fontSize=13;spacing=2;labelBackgroundColor=none;fontColor=#393C56;fontStyle=1" vertex="1" parent="Lri-4pAWPh4FQ8ncXx80-90">
          <mxGeometry y="216" width="245" height="26" as="geometry" />
        </mxCell>
        <mxCell id="Lri-4pAWPh4FQ8ncXx80-111" value="Text" style="text;strokeColor=none;align=center;fillColor=none;html=1;verticalAlign=middle;whiteSpace=wrap;rounded=0;fontColor=#393C56;" vertex="1" parent="WIyWlLk6GJQsqaUBKTNV-1">
          <mxGeometry x="555" y="20" width="60" height="30" as="geometry" />
        </mxCell>
        <mxCell id="Lri-4pAWPh4FQ8ncXx80-112" value="&lt;font style=&quot;font-size: 15px;&quot;&gt;PizzaStore Class Diagram&lt;/font&gt;" style="whiteSpace=wrap;html=1;strokeColor=#E07A5F;fontColor=#393C56;fillColor=#F2CC8F;fontSize=15;fontStyle=5" vertex="1" parent="WIyWlLk6GJQsqaUBKTNV-1">
          <mxGeometry x="476" y="15" width="218" height="40" as="geometry" />
        </mxCell>
      </root>
    </mxGraphModel>
  </diagram>
</mxfile>
